<svg width="24" height="24" viewBox="0 0 24 24" fill="none" xmlns="http://www.w3.org/2000/svg">
    <!-- Outer rim with black outline for visibility on white maps -->
    <path fill-rule="evenodd" clip-rule="evenodd" d="M12 2C6.48 2 2 6.48 2 12C2 17.52 6.48 22 12 22C17.52 22 22 17.52 22 12C22 6.48 17.52 2 12 2ZM12 4C16.42 4 20 7.58 20 12C20 16.42 16.42 20 12 20C7.58 20 4 16.42 4 12C4 7.58 7.58 4 12 4Z" fill="white" stroke="black" stroke-width="1.5"/>
    
    <!-- Inner details (sensor slots) -->
    <circle cx="12" cy="12" r="5" stroke="black" stroke-width="1.5" fill="white"/>
    <rect x="11" y="9" width="2" height="6" fill="black"/>
    <rect x="9" y="11" width="6" height="2" fill="black"/>
</svg>
